<!DOCTYPE svg PUBLIC "-//W3C//DTD SVG 1.1//EN" "http://www.w3.org/Graphics/SVG/1.1/DTD/svg11.dtd">
<!-- Uploaded to: SVG Repo, www.svgrepo.com, Transformed by: SVG Repo Mixer Tools -->
<svg fill="#000000" height="800px" width="800px" version="1.1" id="Capa_1" xmlns="http://www.w3.org/2000/svg" xmlns:xlink="http://www.w3.org/1999/xlink" viewBox="0 0 111.205 111.205" xml:space="preserve">
<g id="SVGRepo_bgCarrier" stroke-width="0"/>
<g id="SVGRepo_tracerCarrier" stroke-linecap="round" stroke-linejoin="round"/>
<g id="SVGRepo_iconCarrier"> <g> <path d="M21.66,37.575c5.64,0,10.229-4.589,10.229-10.229c0-5.64-4.589-10.229-10.229-10.229s-10.229,4.588-10.229,10.229 C11.431,32.986,16.02,37.575,21.66,37.575z"/> <path d="M111.066,62.974l-7.937-24.593c-0.47-1.456-2.036-2.596-3.566-2.596h-1.607c-0.04,0-0.075,0.011-0.114,0.012 c-0.041-0.002-0.079-0.012-0.12-0.012H86.739L68.116,24.352c-0.268-0.165-0.56-0.28-0.863-0.353l-0.452-7.047 c1.28-0.289,2.436-0.964,3.319-1.969c1.107-1.259,1.658-2.874,1.55-4.547l-0.222-3.46c-0.057-0.905-0.795-1.537-1.794-1.537 l-8.832,0.563c-0.996,0.064-1.969,0.694-1.901,1.775l0.223,3.462c0.198,3.094,2.634,5.557,5.662,5.846l0.456,7.12 c-0.518,0.24-0.971,0.609-1.287,1.109l-1.041,1.649c-0.427,0.678-0.562,1.482-0.38,2.263c0.182,0.781,0.658,1.442,1.341,1.861 L81.474,41.88v16.742c-0.65,0.399-1.213,0.931-1.552,1.53l-5.895,10.409c-0.414,0.73-0.478,1.553-0.175,2.258 c0.302,0.705,0.942,1.226,1.757,1.43l6.398,1.6V102.1c0,2.206,1.794,4,4,4h0.389c2.206,0,4-1.794,4-4V77.822 c0.288,0.023,0.585,0.038,0.892,0.038c0.399,0,0.787-0.021,1.151-0.059V102.1c0,2.206,1.794,4,4,4h0.39c2.206,0,4-1.794,4-4V75.74 l5.766-1.481c0.812-0.208,1.45-0.733,1.75-1.44s0.236-1.53-0.177-2.259l-3.279-5.79c0.731,0.842,1.833,1.414,2.911,1.414h0.929 c0.848,0,1.591-0.354,2.041-0.971S111.326,63.78,111.066,62.974z M102.272,60.152c-0.339-0.598-0.902-1.131-1.551-1.529v-5.035 l3.418,9.861L102.272,60.152z"/> <path d="M91.097,33.252c5.014,0,9.094-4.08,9.094-9.094s-4.08-9.094-9.094-9.094s-9.093,4.08-9.093,9.094 S86.083,33.252,91.097,33.252z"/> <path d="M56.159,6.564l-8.629-1.426c0,0-0.184-0.033-0.434-0.033c-1.177,0-1.711,0.688-1.818,1.333L44.711,9.86 c-0.273,1.654,0.114,3.315,1.09,4.679c0.78,1.088,1.862,1.874,3.107,2.29l-1.32,7.982c-0.051,0.031-0.106,0.052-0.155,0.087 L26.551,39.837H14.469h-0.582h-1.283c-1.433,0-3.143,0.878-3.979,2.042L0.724,52.886c-0.862,1.202-0.969,3.153-0.243,4.441 l6.393,11.349c0.711,1.263,2.404,2.252,3.853,2.252h0.159v0.298v0.102v29.402c0,2.757,2.207,5,4.918,5s4.918-2.243,4.918-5V74.328 h1.873v26.402c0,2.757,2.206,5,4.918,5c2.711,0,4.917-2.243,4.917-5V71.328v-0.102V45.299l19.502-13.951 c1.338-0.957,1.666-2.837,0.73-4.191l-1.061-1.534c-0.451-0.653-1.162-1.065-1.922-1.201l1.201-7.264c0.01,0,0.02,0.002,0.03,0.002 c3.081,0,5.682-2.209,6.186-5.254l0.565-3.423C57.835,7.427,57.017,6.706,56.159,6.564z M10.887,61.981l-3.012-4.906 c-0.369-0.6-0.337-1.673,0.065-2.251l2.947-4.228V61.981z"/> </g> </g>
</svg>